<svg width="500" height="500" viewBox="0 0 500 500" fill="none" xmlns="http://www.w3.org/2000/svg">
<path d="M306.465 170.985C312.393 170.355 319.67 172.994 324.307 176.705C329.758 181.063 333.23 187.429 333.943 194.372C334.727 201.633 332.847 206.455 329.207 212.607C326.377 217.392 323.555 222.234 320.73 227.027L299.114 263.738L277.234 300.884C269.158 314.551 265.146 327.031 247.373 328.777C241.212 329.175 235.104 327.407 230.108 323.782C224.644 319.763 220.977 313.762 219.896 307.068C219.244 302.876 219.566 296.982 221.414 293.162C224.282 287.231 228.346 280.84 231.731 275.112L251.262 241.889L275.051 201.479L282.253 189.245C288.979 177.83 292.534 172.966 306.465 170.985Z" fill="#F45151"/>
<path d="M182.452 168.63C197.294 168.213 209.681 179.871 210.165 194.711C210.648 209.551 199.045 221.991 184.208 222.54C169.276 223.094 156.74 211.401 156.253 196.467C155.767 181.533 167.516 169.049 182.452 168.63Z" fill="#F45151"/>
<path d="M207.797 222.469C222.595 221.214 235.62 232.166 236.924 246.96C238.228 261.753 227.32 274.814 212.531 276.167C197.671 277.527 184.535 266.558 183.225 251.692C181.915 236.83 192.929 223.73 207.797 222.469Z" fill="#F45151"/>
</svg>
