<svg width="500" height="500" viewBox="0 0 500 500" fill="none" xmlns="http://www.w3.org/2000/svg">
<path d="M156.136 302.483C163.458 302.61 172.245 300.552 169.959 290.176C168.625 284.116 157.171 283.018 151.585 281.948C140.041 279.736 131.841 271.57 137.967 259.465C142.948 250.295 161.135 249.812 169.056 255.115C171.808 256.958 174.541 260.017 175.161 263.496C175.415 264.788 175.895 266.27 175.142 267.417C174.147 268.032 172.09 267.81 170.76 267.803C168.504 267.869 167.843 267.781 167.087 265.01C165.872 260.552 161.8 259.485 157.744 258.904C150.973 258.523 145.419 259.622 143.64 266.821C144.258 269.524 145.048 271.599 147.667 272.961C156.265 277.439 171.493 275.259 176.624 285.667L178.356 283.821C180.354 276.506 182.807 271.348 189.673 267.454C194.573 264.678 200.98 264.177 206.378 265.598C210.603 266.711 216.719 270.962 218.196 275.203C222.116 281.028 222.964 288.394 220.47 294.956C219.81 298.933 216.234 303.257 212.935 305.569C200.518 314.275 185.233 308.464 179.054 295.317C178.88 294.946 178.605 292.424 178.545 291.87C178.139 294.932 178.623 298.394 176.136 300.569C174.472 304.063 171.017 306.375 167.378 307.73C156.536 311.763 139.768 309.709 135.177 297.471C134.684 296.152 133.941 293.005 134.335 291.68C135.541 290.769 139.66 291.406 141.306 291.27C142.314 291.187 142.484 293.567 142.735 294.314C144.756 300.335 150.669 301.56 156.136 302.483ZM202.16 302.185C220.524 298.455 217.634 271.733 199.074 272.322C189.398 273.926 184.548 281.226 186.365 290.789C187.084 294.487 189.229 297.756 192.336 299.888C195.503 302.034 198.44 302.373 202.16 302.185Z" fill="#FEFEFE"/>
<path d="M156.136 302.483C163.458 302.61 172.245 300.552 169.959 290.176C168.625 284.116 157.171 283.018 151.585 281.948C140.041 279.736 131.841 271.57 137.967 259.465C142.948 250.295 161.135 249.812 169.056 255.115C171.808 256.958 174.541 260.017 175.161 263.496C175.415 264.788 175.895 266.27 175.142 267.417C174.147 268.032 172.09 267.81 170.76 267.803L170.412 267.754C169.596 267.639 169.111 267.681 168.526 267.141C166.965 263.315 167.374 261.284 162.603 259.519C158.968 258.171 152.253 257.827 148.742 259.385C140.541 263.022 141.614 272.444 150.227 274.878C159.474 277.493 171.082 276.882 176.317 286.172C178.346 289.927 177.969 294.959 176.528 298.95C176.377 299.368 176.214 299.78 176.039 300.188L176.136 300.569C174.472 304.063 171.017 306.375 167.378 307.73C156.536 311.763 139.768 309.709 135.177 297.471C134.684 296.152 133.941 293.005 134.335 291.68C135.541 290.769 139.66 291.406 141.306 291.27C142.314 291.187 142.484 293.567 142.735 294.314C144.756 300.335 150.669 301.56 156.136 302.483Z" fill="#FEFEFE"/>
<path d="M176.136 300.569C174.472 304.062 171.017 306.374 167.378 307.729C156.536 311.763 139.768 309.709 135.177 297.471C134.684 296.152 133.941 293.005 134.335 291.68C135.541 290.769 139.66 291.406 141.306 291.27C142.314 291.187 142.484 293.567 142.735 294.314C144.756 300.334 150.669 301.56 156.136 302.483C148.83 303.037 142.861 299.739 141.739 292.009C139.403 291.958 136.978 292.002 134.634 292.012C135.58 306.909 150.007 310.356 162.562 308.411C168.865 307.434 172.283 305.278 176.039 300.188L176.136 300.569Z" fill="#403F40"/>
<path d="M176.039 300.188C176.214 299.78 176.378 299.368 176.528 298.95C177.97 294.959 178.346 289.927 176.317 286.172C171.082 276.882 159.474 277.493 150.227 274.878C141.614 272.444 140.542 263.022 148.742 259.385C152.253 257.827 158.969 258.171 162.604 259.519C167.374 261.284 166.965 263.315 168.526 267.141C169.111 267.681 169.597 267.639 170.412 267.754L170.76 267.803C168.504 267.869 167.843 267.781 167.088 265.01C165.872 260.552 161.8 259.485 157.744 258.904C150.973 258.523 145.419 259.622 143.64 266.821C144.258 269.524 145.048 271.599 147.667 272.961C156.265 277.439 171.493 275.259 176.624 285.667L178.356 283.821C180.354 276.506 182.807 271.348 189.673 267.454C194.573 264.678 200.98 264.177 206.378 265.598C210.604 266.711 216.719 270.962 218.196 275.203C212.63 266.931 202.129 263.54 192.775 266.99C183.421 270.442 177.64 279.841 178.78 289.746C179.92 299.651 187.685 307.493 197.579 308.728C207.472 309.966 216.928 304.275 220.47 294.956C219.81 298.933 216.234 303.257 212.935 305.569C200.518 314.275 185.233 308.464 179.054 295.317C178.88 294.946 178.605 292.424 178.545 291.87C178.139 294.932 178.623 298.394 176.137 300.569L176.039 300.188Z" fill="black"/>
<path d="M81.5994 255.019C81.8516 255.825 81.8296 256.311 82.3706 256.704C83.343 255.82 83.2798 253.806 83.3928 252.424C83.4871 252.632 83.5811 252.839 83.6753 253.047L84.2522 253.235C85.2246 252.834 103.094 220.947 105.991 217.434C111.838 210.347 124.444 213.128 126.408 220.399C129.704 227.511 125.629 232.515 122.115 238.446L114.113 251.956C112.027 255.591 109.919 259.214 107.787 262.825C107.146 263.914 105.51 266.816 104.796 267.683C104.499 268.916 103.119 270.886 102.42 272.051C99.9341 276.189 97.8975 280.872 94.3928 284.27C93.3579 284.968 91.7051 285.808 90.5449 286.191C84.2034 288.286 76.8459 284.514 74.8171 278.291C72.5164 271.233 76.3977 267.527 79.3867 261.667C79.8127 260.832 79.7656 260.706 79.5024 259.949L78.9563 259.719C77.3672 260.051 75.0884 262.349 73.5483 261.943C73.8596 261.697 73.6665 261.819 74.0435 261.653C78.2959 259.79 79.2021 258.701 81.5994 255.019Z" fill="#F45151"/>
<path d="M81.5994 255.019C81.8516 255.825 81.8296 256.311 82.3706 256.704C83.343 255.82 83.2798 253.806 83.3928 252.424C83.4871 252.632 83.5811 252.839 83.6753 253.047L84.2522 253.235C85.2246 252.834 103.094 220.947 105.991 217.434C111.838 210.347 124.444 213.128 126.408 220.399L124.991 218.631C121.648 214.42 116.62 212.599 111.345 214.362C106.684 215.921 105.299 219.103 102.945 223.091C98.9038 229.935 94.8833 236.836 90.8245 243.693L81.7522 259.094C79.6248 262.695 74.781 269.922 74.6384 273.779C74.5166 276.934 75.6575 280.005 77.8081 282.314C80.0747 284.795 83.2603 286.235 86.6191 286.296C89.8047 286.348 92.875 285.105 95.1284 282.854C98.3325 279.661 102.94 269.304 104.796 267.683C104.499 268.916 103.119 270.886 102.42 272.051C99.9341 276.189 97.8975 280.872 94.3928 284.27C93.3579 284.968 91.7051 285.808 90.5449 286.191C84.2034 288.286 76.8459 284.514 74.8171 278.291C72.5164 271.233 76.3977 267.527 79.3867 261.667C79.8127 260.832 79.7656 260.706 79.5024 259.949L78.9563 259.719C77.3672 260.051 75.0884 262.349 73.5483 261.943C73.8596 261.697 73.6665 261.819 74.0435 261.653C78.2959 259.79 79.2021 258.701 81.5994 255.019Z" fill="black"/>
<path d="M188.42 227.455C187.949 227.223 187.755 226.929 187.488 226.476C181.398 216.129 183.718 201.591 194.195 195.027C198.696 192.211 204.135 191.308 209.305 192.518C213.804 193.574 217.735 196.252 220.17 200.199C220.086 198.165 219.873 195.972 220.419 194.026C221.198 193.419 226.339 193.644 227.645 193.657C227.912 198.491 227.785 203.95 227.781 208.826L227.75 234.896C225.384 234.904 222.899 234.949 220.543 234.915C220.526 232.058 220.575 229.2 220.691 226.345C215.46 236.038 204.791 238.753 195.076 233.586C192.423 232.175 190.379 229.698 188.42 227.455ZM208.812 228.768C216.804 227.227 222.025 219.489 220.464 211.501C218.902 203.513 211.151 198.311 203.167 199.893C195.212 201.469 190.033 209.187 191.589 217.146C193.145 225.105 200.849 230.303 208.812 228.768Z" fill="#FEFEFE"/>
<path d="M188.42 227.455C187.949 227.223 187.755 226.929 187.488 226.476C181.398 216.129 183.718 201.591 194.195 195.027C198.696 192.211 204.135 191.308 209.305 192.518C213.804 193.574 217.735 196.252 220.17 200.199C220.086 198.165 219.873 195.972 220.419 194.026C220.562 196.794 220.671 199.563 220.747 202.334C219.064 199.829 217.882 197.643 215.25 195.948C202.367 187.649 187.53 195.833 185 210.222C184.213 214.729 184.763 219.367 186.583 223.563C186.965 224.466 188.207 226.85 188.42 227.455Z" fill="black"/>
<path d="M265.642 235.667C260.452 235.909 254.582 231.96 251.565 227.859C247.839 222.795 246.24 215.714 247.336 209.542C248.179 204.793 252.339 198.498 256.384 195.856C260.82 192.96 266.55 191.029 271.853 192.071C284.233 193.828 292.634 205.653 290.615 217.878C290.305 219.75 288.43 225.653 286.768 226.761C282.009 233.526 273.809 236.984 265.642 235.667ZM272.273 228.649C280.144 226.906 285.142 219.144 283.472 211.255C281.799 203.367 274.082 198.299 266.179 199.899C258.174 201.52 253.027 209.358 254.719 217.348C256.414 225.338 264.297 230.415 272.273 228.649Z" fill="#FEFEFE"/>
<path d="M265.642 235.667C260.452 235.909 254.582 231.96 251.565 227.859C247.839 222.795 246.24 215.714 247.336 209.542C248.179 204.793 252.339 198.498 256.384 195.856C260.82 192.96 266.55 191.029 271.853 192.071C284.233 193.828 292.634 205.653 290.615 217.878C290.305 219.75 288.43 225.653 286.768 226.761C292.317 218.873 291.97 208.263 285.918 200.754C279.866 193.246 269.573 190.653 260.686 194.4C251.799 198.146 246.467 207.326 247.617 216.901C248.769 226.477 256.121 234.133 265.642 235.667Z" fill="black"/>
<path d="M343.12 265.842C355.022 264.136 366.038 272.446 367.666 284.358C369.294 296.272 360.911 307.234 348.987 308.782C337.175 310.317 326.338 302.029 324.726 290.227C323.113 278.425 331.328 267.534 343.12 265.842ZM347.624 302.258C367.161 298.916 363.071 270.996 344.968 272.314C342.51 272.734 340.608 273.171 338.498 274.541C327.583 281.631 330.835 300.544 344.338 302.146C345.415 302.273 346.553 302.263 347.624 302.258Z" fill="#FEFEFE"/>
<path d="M287.837 253.611C289.597 253.584 294.888 253.479 296.179 254.446C296.179 258.259 296.152 262.073 296.101 265.889C298.95 265.872 307.803 265.645 310.127 266.208C310.244 267.288 309.541 268.65 309.551 269.609C309.563 270.82 310.271 271.748 310.012 273.103C309.167 274.014 298.22 273.599 296.133 273.628L296.128 287.18C296.133 302.383 296.543 300.925 310.071 301.15C310.769 301.162 311.384 305.781 311.665 306.67C312.678 300.935 312.322 297.954 312.312 292.165L312.297 275.535C312.295 274.185 312.07 267.314 312.708 266.462C313.457 265.459 318.591 265.769 319.768 266.04C320.046 266.103 320.227 266.531 320.286 266.794C320.474 278.245 320.31 289.714 320.383 301.169C320.393 303.032 320.54 306.211 320.186 307.932L320.012 308.152C318.293 308.835 313.474 308.218 311.533 307.866C311.289 307.959 309.937 308.474 309.775 308.464C305.293 308.213 300.193 308.877 295.903 307.419C284.575 303.574 288.884 288.474 287.664 279.531C287.417 277.725 288.203 275.903 287.314 274.028C286.321 273.372 281.233 273.552 279.878 273.752C278.047 275.01 279.827 292.368 276.999 297.698C279.055 287.5 278.135 277.253 278.113 266.797C275.825 266.77 273.484 266.797 271.191 266.799C271.169 268.691 271.152 270.227 270.967 272.104C270.745 270.793 269.939 266.699 270.598 266.37C273.87 264.729 283.933 266.929 287.207 265.371C288.403 263.901 287.864 255.928 287.837 253.611Z" fill="black"/>
<path d="M312.898 266.98C314.097 266.614 318.542 266.787 320.037 266.814C319.675 275.539 320.032 284.966 319.888 293.755C319.849 296.221 319.778 306.177 320.186 307.932C318.32 307.595 315.017 307.822 312.964 307.766L312.898 266.98Z" fill="#FEFEFE"/>
<path d="M288.479 254.563C290.771 254.521 293.064 254.541 295.356 254.624C295.427 258.691 295.42 262.759 295.327 266.826C299.771 266.738 304.365 266.792 308.833 266.753C308.901 268.816 308.911 270.884 308.86 272.947C305.215 273.259 298.982 273.147 295.339 272.915C295.798 280.295 295.02 287.949 295.566 295.427C296.262 304.89 306.365 300.374 308.726 302.163L308.833 303.162L308.838 307.778C307.175 307.812 305.51 307.837 303.848 307.852C299.614 307.873 295.215 307.913 292.051 304.634C290.388 302.91 289.429 300.666 288.911 298.354C287.803 293.403 288.291 278.677 288.477 272.881C286.018 273.086 281.88 272.959 279.302 272.942V266.809L288.406 266.79C288.367 262.712 288.389 258.638 288.479 254.563Z" fill="#FEFEFE"/>
<path d="M393.113 264.949C400.432 264.158 407.356 267.888 409.812 274.924C411.807 280.64 411.409 286.638 411.865 292.603C411.98 294.116 411.553 296.138 411.677 297.705C411.624 299.961 412.498 305.986 411.626 307.896C410.127 308.64 405.029 308.372 403.11 308.357C402.937 302.273 403.21 296.125 403.12 290.042C403.059 285.793 403.713 281.052 401.504 277.241C400.33 275.178 398.345 273.701 396.03 273.171C392.576 272.358 389.543 272.571 386.47 274.407C385.19 275.525 383.953 276.304 382.842 277.686C379.485 281.792 380.332 287.17 380.107 291.99C379.841 297.744 379.836 302.554 380.447 308.311C378.232 308.433 374.451 308.296 372.2 308.191C371.282 305.532 371.836 271.25 371.882 265.874C373.887 265.825 378.264 265.525 379.883 266.37C380.513 267.605 379.18 270.603 380.376 271.741C380.911 271.152 380.842 270.601 381.328 270.032C381.802 269.475 382.793 268.892 383.396 268.459C387.024 265.857 388.877 265.635 393.113 264.949Z" fill="black" fill-opacity="0.988235"/>
<path d="M392.083 265.698C392.4 265.679 392.715 265.659 393.032 265.642C401.472 265.222 408.65 269.37 410.073 277.81C411.614 286.968 410.52 298.376 410.876 307.766C408.53 307.81 406.187 307.805 403.84 307.749L403.843 291.44C403.843 288.562 404.014 285.327 403.669 282.5C402.441 272.451 393.853 269.99 385.698 274.145C377.781 279.377 379.609 288.491 379.541 296.584C379.509 300.3 379.485 304.031 379.492 307.744C377.437 307.883 374.558 307.864 372.539 307.742C372.175 294.297 372.483 280.239 372.515 266.76L379.292 266.785C379.292 269.377 379.241 271.973 379.138 274.565C382.156 269.167 385.945 266.655 392.083 265.698Z" fill="#FEFEFE"/>
<path d="M177.794 180.078C180.291 180.09 183.2 180.182 185.653 179.952C184.445 183.439 182.242 188.217 180.747 191.705L168.905 219.619C166.799 224.543 164.285 229.969 162.396 234.89C159.945 234.994 158.177 234.993 155.727 234.885C154.545 232.487 153.371 229.681 152.349 227.186C145.907 211.466 138.617 195.887 132.375 180.104C134.863 180.107 137.35 180.091 139.838 180.055C139.874 180.076 139.917 180.088 139.947 180.117C140.412 180.57 157.776 221.204 158.945 225.486C160.138 222.257 161.983 218.187 163.354 214.917L172.65 192.609C174.337 188.553 176.3 184.157 177.794 180.078Z" fill="#FEFEFE"/>
<path d="M240.4 266.943C240.616 266.414 240.592 266.125 240.982 266.033C242.923 265.569 246.055 265.82 248.066 265.903C248.101 270.84 248.098 275.776 248.057 280.713C248.032 289.666 247.202 301.929 259.959 301.655C269.995 301.44 270.491 293.474 270.437 285.752C270.425 283.874 270.876 281.943 270.83 279.866C270.745 277.622 270.999 274.624 270.967 272.104C271.152 270.227 271.169 268.691 271.191 266.799C273.484 266.797 275.825 266.77 278.113 266.797C278.135 277.253 279.055 287.5 276.999 297.698C273.477 305.361 269.106 308.467 260.454 309.202C255.774 309.6 250 307.783 246.511 304.639C240.145 298.894 240.394 289.509 240.514 281.638C240.538 276.894 240.6 271.641 240.4 266.943Z" fill="#FEFEFE"/>
<path d="M240.4 266.943C240.616 266.414 240.592 266.125 240.982 266.033C242.923 265.569 246.055 265.82 248.066 265.903C248.101 270.84 248.098 275.776 248.057 280.713C248.032 289.666 247.202 301.929 259.959 301.655C269.995 301.44 270.491 293.474 270.437 285.752C270.425 283.874 270.876 281.943 270.83 279.866L271.023 280.112C271.55 288.457 272.354 301.995 260.466 302.371C246.426 302.812 247.729 290.527 247.781 280.764C247.849 276.118 247.844 271.47 247.766 266.824C245.725 266.782 242.318 266.67 240.4 266.943Z" fill="black"/>
<path d="M429.043 265.674C438.435 264.851 446.24 267.624 447.981 277.971C445.42 278.164 443.545 278.127 440.967 277.952C439.521 272.134 434.746 270.813 429.189 271.848C426.89 272.275 425.518 273.748 424.37 275.715C424.348 276.157 424.275 278.079 424.326 278.503C425.171 285.562 440.759 283.01 445.654 288.093C447.695 289.915 448.813 292.2 448.972 295.032C449.595 306.099 441.379 308.281 433.057 309.153C423.63 308.491 416.338 306.106 415.269 295.181C417.175 295.024 419.966 295.137 421.941 295.161C422.437 297.461 422.793 298.904 424.69 300.637C428.384 304.011 436.96 304.404 440.393 300.479C442.014 298.623 441.763 296.584 441.487 294.309C436.768 287.209 419.336 292.388 417.493 280.032C416.191 271.309 421.016 267.104 429.043 265.674Z" fill="#FEFEFE"/>
<path d="M57.3282 212.413C61.8887 212.174 66.2235 214.413 68.6678 218.27C71.1119 222.128 71.2852 227.004 69.1212 231.025C66.9571 235.047 62.7921 237.588 58.2261 237.673C51.3299 237.802 45.6038 232.378 45.3587 225.485C45.1136 218.591 50.4403 212.774 57.3282 212.413Z" fill="#F45151"/>
<path d="M73.5484 261.943C70.7078 262.666 67.7041 262.38 65.0508 261.135C58.6639 258.135 55.8235 250.623 58.8516 244.419C64.0159 233.842 79.1324 234.742 82.5408 246.314C83.4288 249.329 83.0066 252.31 81.5994 255.02C79.2022 258.701 78.2959 259.79 74.0435 261.653C73.6666 261.819 73.8597 261.697 73.5484 261.943Z" fill="#F45151"/>
<path d="M295.376 193.57C296.68 192.864 297.607 193.181 298.921 193.041C304.458 192.446 302.454 196.139 303.398 197.716L303.926 197.803C304.534 197.26 306.179 195.69 306.682 195.338C309.099 193.643 316.863 192.001 319.243 193.798C319.475 195.643 319.058 197.987 319.172 200.158C317.742 200.862 317.937 200.906 316.216 200.484C313.037 199.705 309.795 201.664 307.124 203.076C301.694 206.888 302.549 216.436 302.576 222.141C302.629 226.391 302.62 230.642 302.551 234.891C300.911 234.959 296.577 235.309 295.344 234.502C294.871 228.933 295.352 223.126 295.295 217.541C295.234 211.838 295.083 206.12 295.173 200.415C295.205 198.437 294.944 195.345 295.376 193.57Z" fill="#FEFEFE"/>
<path d="M295.376 193.57C296.68 192.864 297.607 193.181 298.921 193.041C304.458 192.446 302.454 196.139 303.398 197.716L303.926 197.803C304.534 197.26 306.179 195.69 306.682 195.338C309.099 193.643 316.863 192.001 319.243 193.798C319.475 195.643 319.058 197.987 319.172 200.158C317.742 200.862 317.937 200.906 316.216 200.484C313.037 199.705 309.795 201.664 307.124 203.076C309.722 199.838 314.766 199.938 318.53 199.838C318.401 197.926 318.459 195.735 318.464 193.798C309.912 193.666 306.328 194.371 302.078 202.567C301.985 199.897 302.183 196.571 302.175 193.787C300.327 193.762 296.963 193.907 295.376 193.57Z" fill="black"/>
<path d="M235.781 177.895C237.633 178.139 240.837 177.943 242.714 177.85C242.999 181.54 242.912 185.814 242.909 189.545L242.903 207.414L242.941 223.713C242.948 226.775 242.996 229.932 242.859 232.989C242.808 234.134 242.755 234.099 242.143 234.929C239.968 235.095 237.822 234.983 235.643 234.914C235.947 229.836 235.711 223.198 235.691 218.025L235.749 195.068C235.743 189.3 235.582 183.667 235.781 177.895Z" fill="#FEFEFE"/>
<path d="M226.47 251.003C228.826 250.95 231.183 250.93 233.54 250.947L233.544 307.817C231.134 307.91 228.836 307.869 226.429 307.832C226.332 291.587 226.44 275.222 226.394 258.965C226.386 256.528 226.077 253.342 226.47 251.003Z" fill="#FEFEFE"/>
<path d="M315.23 249.988C321.736 249.631 323.75 256.46 318.066 258.772C315.837 259.255 313.34 258.779 312.17 256.619C311.572 255.508 311.487 254.194 311.936 253.015C312.581 251.265 313.677 250.759 315.23 249.988Z" fill="#FEFEFE"/>
</svg>
