<svg width="500" height="500" viewBox="0 0 500 500" fill="none" xmlns="http://www.w3.org/2000/svg">
<path d="M113.326 213.913C116.047 213.619 118.316 213.854 120.79 215.144C123.76 216.674 125.949 219.384 126.82 222.609C128.124 227.37 126.627 229.997 124.313 234.006L104.842 267.095C102.794 270.576 100.628 274.172 98.6205 277.664C95.8104 282.551 94.3153 284.575 88.7067 286.074C85.673 286.436 82.9965 285.969 80.358 284.363C77.6195 282.703 75.6844 279.99 75.0067 276.86C73.7474 271.23 76.8109 267.48 79.5228 262.878L86.6962 250.718L98.8661 230.024C101.059 226.299 103.261 222.448 105.546 218.792C107.263 216.045 110.208 214.541 113.326 213.913Z" fill="#F55151"/>
<path d="M204.045 192.738C211.994 193.069 217.025 195.548 220.769 202.766C220.729 199.816 220.755 196.808 220.751 193.854L227.304 193.859L227.287 234.737L220.75 234.764L220.753 225.974C220.05 227.399 219.661 227.992 218.777 229.292C215.868 232.917 211.634 235.234 207.013 235.73C201.834 236.359 196.621 234.859 192.568 231.574C178.551 220.16 183.849 194.293 204.045 192.738ZM208.33 228.984C216.477 227.698 222.023 220.032 220.696 211.893C219.368 203.753 211.673 198.247 203.54 199.617C195.468 200.977 190.011 208.603 191.328 216.683C192.646 224.762 200.244 230.259 208.33 228.984Z" fill="black"/>
<path d="M267.28 192.842C279.106 191.855 289.492 200.64 290.483 212.465C291.475 224.29 282.69 234.68 270.867 235.673C259.036 236.666 248.643 227.881 247.651 216.051C246.663 204.221 255.449 193.829 267.28 192.842ZM271.321 228.957C276.606 228.153 281.055 224.572 282.966 219.579C284.88 214.586 283.965 208.95 280.569 204.819C277.175 200.688 271.821 198.699 266.553 199.609C258.52 200.997 253.103 208.595 254.409 216.642C255.718 224.689 263.259 230.183 271.321 228.957Z" fill="black"/>
<path d="M198.463 265.84C210.282 264.873 220.649 273.664 221.63 285.481C222.611 297.3 213.834 307.678 202.018 308.674C190.181 309.67 179.78 300.874 178.797 289.036C177.815 277.197 186.623 266.809 198.463 265.84ZM202.472 301.956C207.761 301.152 212.209 297.568 214.122 292.573C216.034 287.578 215.115 281.938 211.716 277.808C208.316 273.679 202.96 271.692 197.69 272.61C189.66 274.004 184.251 281.604 185.562 289.648C186.873 297.693 194.415 303.181 202.472 301.956Z" fill="black"/>
<path d="M344.453 265.84C356.267 264.878 366.631 273.665 367.612 285.478C368.596 297.292 359.827 307.668 348.015 308.669C336.174 309.675 325.769 300.879 324.783 289.038C323.799 277.197 332.61 266.807 344.453 265.84ZM348.709 301.919C356.816 300.542 362.268 292.844 360.874 284.739C359.48 276.633 351.768 271.199 343.665 272.612C335.588 274.021 330.178 281.702 331.567 289.78C332.959 297.861 340.625 303.291 348.709 301.919Z" fill="black"/>
<path d="M152.997 252.053C158.072 251.226 165.997 252.722 170.079 256.05C174.151 259.37 175.049 262.576 175.604 267.524L168.526 267.532C167.369 259.541 161.439 258.132 154.422 258.23C148.967 258.308 142.63 261.052 143.172 267.595C143.886 276.213 156.473 275.981 162.726 277.581C175.705 279.775 182.741 291.987 173.745 302.983C170.147 307.38 162.149 308.777 156.303 308.877C144.934 308.606 135.794 304.299 134.673 291.992H141.752C142.518 306.777 172.23 306.765 170.455 291.497C169.552 283.738 157.313 282.825 151.104 281.619C138.706 279.207 131.647 269.67 139.094 258.162C141.744 254.094 148.129 252.62 152.997 252.053Z" fill="black"/>
<path d="M132.531 180.204L139.975 180.234C146.451 195.182 152.698 210.635 158.984 225.698C160.937 221.741 163.611 214.71 165.37 210.488L177.978 180.221L185.443 180.226L182.568 186.93L162.232 234.75L155.788 234.751L132.531 180.204Z" fill="black"/>
<path d="M393.313 265.725C401.316 264.922 408.721 270.046 409.951 277.888C411.389 287.043 410.889 298.403 410.776 307.737L404.026 307.749L404.055 292.488C404.065 284.512 405.002 272.781 393.621 272.131C390.427 271.948 388.044 272.612 385.325 274.297C378.193 279.558 379.358 286.904 379.387 294.8L379.399 307.734L372.595 307.761L372.59 266.848L379.148 266.851L379.119 274.983C381.895 268.994 386.902 266.265 393.313 265.725Z" fill="black"/>
<path d="M430.588 265.723C438.701 264.856 446.895 268.948 447.656 277.876C445.481 277.918 443.232 277.878 441.052 277.869C439.927 273.23 437.473 271.741 432.791 271.445C428.442 271.174 423.853 272.932 424.121 278.01C424.399 283.289 431.165 283.496 435.066 284.363C441.858 285.627 448.865 287.532 448.909 295.928C448.96 305.969 440.637 308.706 432.261 308.875C423.259 308.445 416.443 305.159 415.364 295.23C417.295 295.149 420.01 295.252 422.004 295.264C422.693 301.953 428.313 303.64 434.17 303.25C438.491 302.964 442.495 300.713 441.89 295.815C441.165 289.939 432.317 290.183 427.852 288.904C422.712 287.434 417.583 284.981 417.375 278.774C417.09 269.963 422.639 266.467 430.588 265.723Z" fill="black"/>
<path d="M240.899 266.848L247.639 266.855C247.705 271.895 247.573 276.958 247.62 281.992C247.676 287.742 246.914 294.827 251.152 299.377C255.024 303.533 263.848 303.552 267.739 299.385C269.341 297.671 270.312 295.508 270.779 293.22C271.499 289.49 271.284 285.435 271.277 281.631L271.243 266.848L278.059 266.865L278.069 273.101L278.096 283.562C278.103 290.676 278.342 298.398 272.971 303.86C266.291 310.649 252.627 310.591 245.957 303.855C240.082 297.92 240.875 288.718 240.88 281.052L240.899 266.848Z" fill="black"/>
<path d="M288.503 254.658L295.247 254.661L295.227 266.851L308.811 266.855L308.796 272.844C304.28 272.864 299.763 272.849 295.247 272.805C295.225 278.491 294.338 294.575 296.504 298.98C298.762 303.567 305.076 300.881 308.691 302.173L308.811 302.917L308.792 307.756C303.594 307.791 296.199 308.53 292.341 304.719C287.566 300.002 288.477 291.533 288.484 285.278L288.499 272.8C285.388 272.839 282.432 272.876 279.319 272.769V266.846L288.496 266.848L288.503 254.658Z" fill="black"/>
<path d="M56.6361 212.739C63.4003 211.989 69.497 216.851 70.2714 223.612C71.0458 230.373 66.2062 236.488 59.4476 237.287C52.6544 238.09 46.5016 233.22 45.7233 226.424C44.9447 219.627 49.837 213.492 56.6361 212.739Z" fill="#F55151"/>
<path d="M67.5373 237.691C74.1799 236.143 80.8193 240.276 82.3618 246.919C83.9043 253.564 79.7651 260.2 73.1196 261.736C66.4824 263.271 59.8569 259.138 58.3164 252.502C56.7758 245.867 60.9028 239.238 67.5373 237.691Z" fill="#F55151"/>
<path d="M226.603 251.179L233.431 251.201L233.412 307.742L226.617 307.749L226.603 251.179Z" fill="black"/>
<path d="M302.012 203.218C305.342 194.628 310.281 193.776 318.511 193.856L318.459 199.768C309.78 199.91 305.647 201.134 302.837 210.279C301.853 216.92 302.375 227.576 302.261 234.738L295.488 234.744L295.476 193.858L302.026 193.855L302.012 203.218Z" fill="black"/>
<path d="M235.889 178.199L242.695 178.2L242.695 234.727C240.472 234.772 238.155 234.739 235.924 234.741C235.763 228.345 235.886 221.478 235.886 215.054L235.889 178.199Z" fill="black"/>
<path d="M312.983 266.851L319.827 266.858L319.81 307.751L312.981 307.769L312.983 266.851Z" fill="black"/>
<path d="M316.025 250.051C318.198 250.178 320.208 250.886 320.933 253.169C321.284 254.268 321.162 255.464 320.601 256.472C319.751 258.032 318.657 258.398 317.058 258.816C314.656 258.74 312.505 258.057 311.873 255.415C311.602 254.297 311.809 253.115 312.441 252.156C313.369 250.752 314.49 250.41 316.025 250.051Z" fill="black"/>
</svg>
